<?xml version="1.0" encoding="utf-8"?>
<!-- Generator: Adobe Illustrator 18.0.0, SVG Export Plug-In . SVG Version: 6.00 Build 0)  -->
<!DOCTYPE svg PUBLIC "-//W3C//DTD SVG 1.1//EN" "http://www.w3.org/Graphics/SVG/1.1/DTD/svg11.dtd">
<svg version="1.1" id="Capa_1" xmlns="http://www.w3.org/2000/svg" xmlns:xlink="http://www.w3.org/1999/xlink" x="0px" y="0px"
	 viewBox="0 0 432 288" enable-background="new 0 0 432 288" xml:space="preserve">
<g>
	<g>
		<path fill="#FFFFFF" d="M355.2,100.4h-38.4c-2.7,0-4.8,2.1-4.8,4.8v4.8H196.8c-1.3,0-2.5,0.5-3.4,1.4l-6.2,6.2l-6.2-6.2
			c-0.9-0.9-2.1-1.4-3.4-1.4H120v-4.8c0-2.7-2.1-4.8-4.8-4.8H76.8c-2.7,0-4.8,2.1-4.8,4.8v134.4c0,2.7,2.1,4.8,4.8,4.8h38.4
			c2.7,0,4.8-2.1,4.8-4.8v-4.8h3.7c2.7,6.4,9.6,10,16.4,8.4c1.8,7.8,9.5,12.6,17.2,10.9l0,0c1.7,6.6,7.6,11.2,14.4,11.2
			c1,0,1.9-0.1,2.8-0.3c2.1,8,10.3,12.8,18.2,10.7c3.7-1,6.8-3.3,8.9-6.5l3.2-5.1l14.9,14.9c5.8,5.8,15.3,5.9,21.1,0.1
			c2.7-2.7,4.3-6.3,4.4-10.1c7.9-0.2,14.2-6.5,14.4-14.4c7.9-0.2,14.2-6.5,14.4-14.4c6.2-0.1,11.7-4.2,13.6-10.1l24.3,4.1v5.5
			c0,2.7,2.1,4.8,4.8,4.8h38.4c2.7,0,4.8-2.1,4.8-4.8V105.2C360,102.6,357.9,100.4,355.2,100.4z M110.4,114.8v120H81.6V110h28.8
			V114.8z M141.9,231.5c-1.6,2.5-4.9,3.3-7.4,1.7c-2.5-1.6-3.3-4.9-1.7-7.4l14.5-23c1-1.6,2.7-2.5,4.6-2.5c1,0,2,0.3,2.9,0.8
			c2.5,1.6,3.3,4.9,1.7,7.4L141.9,231.5z M159.1,242.4c-1.6,2.5-4.9,3.3-7.4,1.7c-2.5-1.6-3.3-4.9-1.7-7.4l14.5-23
			c1.6-2.5,4.9-3.3,7.4-1.7c2.5,1.6,3.3,4.9,1.7,7.4L159.1,242.4z M176.3,253.2c-1.6,2.5-4.9,3.3-7.4,1.7c-2.5-1.6-3.3-4.9-1.7-7.4
			l14.5-23c1.6-2.5,4.9-3.3,7.4-1.7s3.3,4.9,1.7,7.4L176.3,253.2z M208,241.1l-14.5,23c-1.6,2.5-4.9,3.3-7.4,1.7
			c-2.5-1.6-3.3-4.9-1.7-7.4l14.5-23c0.8-1.2,2-2.1,3.4-2.4c0.4-0.1,0.8-0.1,1.2-0.1c3,0,5.4,2.4,5.4,5.4
			C208.9,239.2,208.6,240.2,208,241.1L208,241.1z M234.2,272.2L234.2,272.2L234.2,272.2C234.2,272.2,234.2,272.2,234.2,272.2z
			 M234.2,272.2c-2.1,2.1-5.5,2.1-7.6,0l-16.5-16.5l5.9-9.3l18.2,18.2C236.3,266.7,236.3,270.1,234.2,272.2z M277.4,229
			C277.4,229,277.4,229,277.4,229L277.4,229c-2.1,2.1-5.5,2.1-7.6,0l-26.4-26.4l-6.8,6.8l26.4,26.4c2.1,2.1,2.1,5.5,0,7.6
			c-2.1,2.1-5.5,2.1-7.6,0L229,217l-6.8,6.8l26.4,26.4c2.1,2.1,2.1,5.5,0,7.6c-2.1,2.1-5.5,2.1-7.6,0l-21.6-21.6l-1.3-1.3v0
			c-1.8-7.9-9.5-12.9-17.4-11.4c-2-7.6-9.5-12.4-17.2-10.8c-2-7.6-9.5-12.4-17.2-10.8c-2.1-8-10.2-12.8-18.2-10.7
			c-3.7,1-6.9,3.3-8.9,6.5l-14.5,23c-0.9,1.4-1.5,3-1.9,4.6H120V119.6h55.6l4.8,4.8l-11,11c-7.2,7.2-7.2,18.8,0,26
			c7.2,7.2,18.8,7.2,26,0l11-11l71,71C279.5,223.5,279.5,226.9,277.4,229z M312,224.4l-21.7-3.6l-6.1-6.1l-74.4-74.4
			c-1.9-1.9-4.9-1.9-6.8,0l-14.4,14.4c-3.5,3.3-8.9,3.3-12.4,0c-3.4-3.4-3.4-9,0-12.4l22.6-22.6H312V224.4z M350.4,234.8h-28.8V110
			h28.8V234.8z"/>
	</g>
</g>
<g>
	<g>
		<path fill="#FFFFFF" d="M216,23.6c-21.2,0-38.4,17.2-38.4,38.4c0,21.2,17.2,38.4,38.4,38.4c21.2,0,38.4-17.2,38.4-38.4
			C254.4,40.8,237.2,23.6,216,23.6z M220.8,90.4v-0.8c-1.6,0.3-3.2,0.4-4.9,0.4c-1.6,0-3.2-0.1-4.7-0.4v0.8
			c-15.7-2.6-26.2-17.5-23.6-33.1c2-12.1,11.5-21.6,23.6-23.6v0.5c1.5-0.3,3.1-0.4,4.7-0.4c1.7,0,3.3,0.2,4.9,0.4v-0.6
			c15.7,2.6,26.2,17.5,23.6,33.1C242.4,78.9,232.9,88.4,220.8,90.4z"/>
	</g>
</g>
<g>
	<g>
		<path fill="#FFFFFF" d="M260.7,16.9l-5,8.2c2.6,1.6,5.2,3.4,7.6,5.3l5.9-7.5C266.5,20.7,263.7,18.7,260.7,16.9z"/>
	</g>
</g>
<g>
	<g>
		<path fill="#FFFFFF" d="M241.7,8.3l-2.9,9.2c3,0.9,5.9,2,8.7,3.3l3.9-8.8C248.3,10.6,245,9.4,241.7,8.3z"/>
	</g>
</g>
<g>
	<g>
		<path fill="#FFFFFF" d="M289.9,46.1l-8.2,5c1.6,2.6,3,5.4,4.3,8.2l8.8-3.9C293.4,52.2,291.7,49.1,289.9,46.1z"/>
	</g>
</g>
<g>
	<g>
		<path fill="#FFFFFF" d="M277.1,29.8l-6.8,6.8c2.2,2.2,4.3,4.5,6.2,6.9l7.5-5.9C281.9,34.8,279.5,32.2,277.1,29.8z"/>
	</g>
</g>
<g>
	<g>
		<path fill="#FFFFFF" d="M298.5,65.1l-9.2,2.8c0.9,3,1.7,6,2.2,9l9.4-1.7C300.4,71.8,299.5,68.5,298.5,65.1z"/>
	</g>
</g>
<g>
	<g>
		<path fill="#FFFFFF" d="M221.2,4.6l-0.6,9.6c3.1,0.2,6.2,0.6,9.2,1.1l1.7-9.5C228.1,5.2,224.6,4.8,221.2,4.6z"/>
	</g>
</g>
<g>
	<g>
		<path fill="#FFFFFF" d="M154.9,29.8c-2.5,2.5-4.8,5.1-6.9,7.8l7.6,5.9c1.9-2.4,3.9-4.7,6.1-6.9L154.9,29.8z"/>
	</g>
</g>
<g>
	<g>
		<path fill="#FFFFFF" d="M142,46.2c-1.8,3-3.4,6.1-4.8,9.2l8.8,3.9c1.3-2.8,2.7-5.6,4.3-8.2L142,46.2z"/>
	</g>
</g>
<g>
	<g>
		<path fill="#FFFFFF" d="M133.5,65.2c-1,3.3-1.9,6.7-2.5,10.2l9.4,1.7c0.6-3,1.3-6.1,2.2-9L133.5,65.2z"/>
	</g>
</g>
<g>
	<g>
		<path fill="#FFFFFF" d="M171.2,16.9c-3,1.8-5.8,3.8-8.6,5.9l5.9,7.5c2.4-1.9,5-3.7,7.6-5.3L171.2,16.9z"/>
	</g>
</g>
<g>
	<g>
		<path fill="#FFFFFF" d="M210.7,4.6c-3.5,0.2-6.9,0.6-10.4,1.3l1.7,9.5c3.1-0.6,6.1-0.9,9.2-1.1L210.7,4.6z"/>
	</g>
</g>
<g>
	<g>
		<path fill="#FFFFFF" d="M190.2,8.3c-3.3,1-6.6,2.3-9.8,3.7l3.9,8.7c2.8-1.3,5.7-2.4,8.7-3.3L190.2,8.3z"/>
	</g>
</g>
<g>
	<path fill="#FFFFFF" d="M219.3,47.7c1.1,1.2,1.9,2.9,2.3,4.9h6.2v3.8h-6.3c-0.8,5.4-5.1,8.4-10.4,8.8c3.7,3.8,8.1,9,12.3,14.2h-8.9
		c-3.1-3.8-7.4-8.9-11.7-13.5v-5.6h3.4c4.6,0,6.9-1.6,7.6-3.9h-10.9v-3.8h10.7c-0.9-1.8-2.9-3-6.6-3h-4.1v-5.7h25v3.8H219.3z"/>
</g>
</svg>
