<?xml version="1.0" encoding="utf-8"?>
<!-- Generator: Adobe Illustrator 18.0.0, SVG Export Plug-In . SVG Version: 6.00 Build 0)  -->
<!DOCTYPE svg PUBLIC "-//W3C//DTD SVG 1.1//EN" "http://www.w3.org/Graphics/SVG/1.1/DTD/svg11.dtd">
<svg version="1.1" id="Capa_1" xmlns="http://www.w3.org/2000/svg" xmlns:xlink="http://www.w3.org/1999/xlink" x="0px" y="0px"
	 viewBox="0 0 432 288" enable-background="new 0 0 432 288" xml:space="preserve">
<g>
	<g>
		<path fill="#FFFFFF" d="M281,268.4l-22.4-17.9c-0.8-0.7-1.8-1-2.8-1h-42.6l-14.9-17.9h62c12.3,0,22.4-10.1,22.4-22.4V30.2
			c0-12.3-10.1-22.4-22.4-22.4H36.5c-12.3,0-22.4,10.1-22.4,22.4v179c0,12.3,10.1,22.4,22.4,22.4h62l-14.9,17.9H41c-1,0-2,0.4-2.8,1
			l-22.4,17.9c-2,1.6-2.2,4.4-0.7,6.2c0.8,1,2.1,1.7,3.5,1.7h259.6c2.5,0,4.5-2,4.5-4.5C282.6,270.5,282,269.3,281,268.4z
			 M36.5,222.7c-7.5,0-13.4-6-13.4-13.4v-179c0-7.5,6-13.4,13.4-13.4h223.8c7.5,0,13.4,6,13.4,13.4v179c0,7.5-6,13.4-13.4,13.4H36.5
			z M110.2,231.6h76.4l14.9,17.9H95.2L110.2,231.6z M31.4,267.4l11.2-9h211.6l11.2,9H31.4z"/>
	</g>
</g>
<g>
	<g>
		<path fill="#FFFFFF" d="M260.3,25.8H36.5c-2.5,0-4.5,2-4.5,4.5v161.1c0,2.5,2,4.5,4.5,4.5h223.8c2.5,0,4.5-2,4.5-4.5V30.2
			C264.7,27.8,262.7,25.8,260.3,25.8z M255.8,186.9H41V34.7h214.8V186.9z"/>
	</g>
</g>
<g>
	<g>
		<rect x="126" y="204.8" fill="#FFFFFF" width="44.8" height="9"/>
	</g>
</g>
<g>
	<g>
		<rect x="97.8" y="188.8" fill="#FFFFFF" width="33.4" height="6.7"/>
	</g>
</g>
<path fill="#FFFFFF" d="M369.8,165c-6.6,0-12,5.3-12,12s5.3,12,12,12c6.6,0,12-5.3,12-12S376.4,165,369.8,165z M369.8,182.9
	c-3.3,0-6-2.7-6-6s2.7-6,6-6s6,2.7,6,6S373.1,182.9,369.8,182.9z"/>
<path fill="#FFFFFF" d="M360.7,33.4h12c1.7,0,2.9-1.4,2.9-2.9c0-1.7-1.4-2.9-2.9-2.9h-12c-1.7,0-2.9,1.4-2.9,2.9
	C357.8,32.1,359.1,33.4,360.7,33.4z"/>
<path fill="#FFFFFF" d="M381.7,33.4h2.9c1.7,0,2.9-1.4,2.9-2.9c0-1.7-1.4-2.9-2.9-2.9h-2.9c-1.7,0-2.9,1.4-2.9,2.9
	C378.7,32.1,380.1,33.4,381.7,33.4z"/>
<path fill="#FFFFFF" d="M417.6,53.4v102.7h-89.7V42.4h89.7v12h6V31.6c0-7.3-5.9-13.2-13.2-13.2H335c-7.3,0-13.2,5.9-13.2,13.2v153.1
	c0,7.3,5.9,13.2,13.2,13.2h75.3c7.3,0,13.2-5.9,13.2-13.2V53.4H417.6z M327.9,31.8c0-4.1,3.2-7.3,7.1-7.3h75.3
	c3.9,0,7.3,3.2,7.3,7.3v4.7h-89.7V31.8z M417.5,184.7c0.1,3.9-3.1,7.3-7.1,7.3H335c-3.9,0-7.3-3.2-7.3-7.3V162h89.7V184.7z"/>
</svg>
