<?xml version="1.0" encoding="utf-8"?>
<!-- Generator: Adobe Illustrator 18.0.0, SVG Export Plug-In . SVG Version: 6.00 Build 0)  -->
<!DOCTYPE svg PUBLIC "-//W3C//DTD SVG 1.1//EN" "http://www.w3.org/Graphics/SVG/1.1/DTD/svg11.dtd">
<svg version="1.1" id="Capa_1" xmlns="http://www.w3.org/2000/svg" xmlns:xlink="http://www.w3.org/1999/xlink" x="0px" y="0px"
	 viewBox="0 0 432 288" enable-background="new 0 0 432 288" xml:space="preserve">
<g>
	<g>
		<path fill="#FFFFFF" d="M72,102v156c0,16.6,13.4,30,30,30h180v-0.3c2,0.2,4,0.3,6,0.3c39.8,0,72-32.2,72-72s-32.2-72-72-72
			c-8.4,0-16.5,1.4-24,4.1V102c0-23.2-18.8-42-42-42c-1.6-0.2-4.7-3.2-5.7-12H246c3.3,0,6-2.7,6-6V6c0-3.3-2.7-6-6-6L90,0
			c-3.3,0-6,2.7-6,6v36c0,3.3,2.7,6,6,6h29.7c-1,8.8-4.2,11.8-6,12C90.6,60.2,72,78.9,72,102z M96,36V12h18v12h12V12h12v12h12V12h12
			v12h12V12h12v12h12V12h12v12l12,0V12h18v24H96z M251.4,96H84.6c2.8-13.7,14.9-24,29.4-24c0.7,0,15.6-0.3,17.7-24h72.5
			c2.2,23.7,17.1,24,17.7,24C236.5,72,248.6,82.3,251.4,96z M334.5,254L250,169.6c10.3-8.5,23.6-13.6,38-13.6c33.1,0,60,26.9,60,60
			C348,230.4,342.9,243.6,334.5,254z M228,216c0-14.4,5.1-27.6,13.6-37.9l84.4,84.4c-10.3,8.5-23.6,13.5-38,13.5
			C254.9,276,228,249.1,228,216z M84,240h136.1c5.3,14.8,15.2,27.4,28.1,36H102c-9.9,0-18-8.1-18-18V240z M84,108h168v45.6
			c-21.5,12.4-36,35.7-36,62.4c0,4.1,0.4,8.1,1,12H84V108z"/>
	</g>
</g>
<g>
	<g>
		<path fill="#FFFFFF" d="M126,156v24c0,3.3,2.7,6,6,6h18v18c0,3.3,2.7,6,6,6h24c3.3,0,6-2.7,6-6v-18h18c3.3,0,6-2.7,6-6v-24
			c0-3.3-2.7-6-6-6h-18v-18c0-3.3-2.7-6-6-6h-24c-3.3,0-6,2.7-6,6v18h-18C128.7,150,126,152.7,126,156z M138,162h18c3.3,0,6-2.7,6-6
			v-18h12v18c0,3.3,2.7,6,6,6h18v12h-18c-3.3,0-6,2.7-6,6v18h-12v-18c0-3.3-2.7-6-6-6h-18V162z"/>
	</g>
</g>
</svg>
