<?xml version="1.0" encoding="utf-8"?>
<!-- Generator: Adobe Illustrator 18.0.0, SVG Export Plug-In . SVG Version: 6.00 Build 0)  -->
<!DOCTYPE svg PUBLIC "-//W3C//DTD SVG 1.1//EN" "http://www.w3.org/Graphics/SVG/1.1/DTD/svg11.dtd">
<svg version="1.1" id="Layer_1" xmlns="http://www.w3.org/2000/svg" xmlns:xlink="http://www.w3.org/1999/xlink" x="0px" y="0px"
	 viewBox="0 0 239.3 275.3" enable-background="new 0 0 239.3 275.3" xml:space="preserve">
<g>
	<g>
		<g>
			<path fill="#FFFFFF" d="M231.5,225.4l-38.2-67.1c3.9-1.8,6.2-5.9,5.9-10.6l-2.8-23.7l16.3-17c3.6-3.6,3.9-9.8,0.3-14.2
				l-16.3-17.5l3.4-24c0.5-5.2-3.1-10.3-8.3-11.4l-23.5-4.6L157,14.3c-2.3-4.9-8-7-13.2-4.9h-0.3l-21.7,10.1L100.7,9.1
				c-2.3-1.3-5.2-1.5-7.7-0.8s-4.6,2.6-5.9,4.9L75.4,34.1l-23.5,4.1c-5.4,1-9,5.9-8.5,11.6l2.8,23.7L30,90.7
				c-3.6,3.6-3.9,9.8-0.3,14.2L46,122.4l-3.4,24c-0.5,4.6,2.3,9,6.7,10.8l-38.4,68.1c-1,1.5-0.8,3.6,0,5.2c1,1.5,2.6,2.6,4.4,2.6
				h41.3l18.8,32.8c1,1.5,2.6,2.6,4.4,2.6c1.8,0,3.6-1,4.4-2.6l36.9-63l36.9,63.7c1,1.5,2.6,2.6,4.4,2.6s3.6-1,4.4-2.6l18.8-33.5
				h41.3c1.8,0,3.6-1,4.4-2.6C232.6,229,232.6,226.9,231.5,225.4z M80.1,253l-16-27.6c-1-1.5-2.6-2.6-4.4-2.6H24.1l35.6-63l14.7,2.6
				l11.4,20.9c2.3,4.9,8,7,13.2,4.9h0.3l10.6-4.9l5.2,9L80.1,253z M95,178.9c-0.3,0-0.3,0-0.3,0l-11.4-21.4
				c-1.5-2.6-4.1-4.6-7.2-4.9l-23.7-4.4l3.4-23.7c0.5-3.1-0.5-6.5-2.6-8.5l-16-17.5l16.3-17c2.3-2.3,3.4-5.4,2.8-8.5l-2.8-23.5
				c0,0,0-0.3,0.3-0.5l23.5-4.1c2.8-0.5,5.7-2.3,7.2-5.2l11.6-20.9L117.2,29c2.8,1.5,6.5,1.5,9.3,0l21.4-9.8c0.3,0,0.3,0,0.3,0
				l11.4,21.4c1.5,2.6,4.1,4.6,7,4.9l23.5,4.6l-3.4,23.7c-0.5,3.1,0.5,6.5,2.6,8.5l16.3,17.5L189,117c-2.3,2.3-3.4,5.4-2.8,8.5
				l2.8,23.7l-23.2,3.9c-2.8,0.5-5.7,2.3-7.2,5.2l-11.6,20.9l-21.2-10.3c-2.8-1.5-6.5-1.5-9.3,0L95,178.9z M182.8,222.8
				c-1.8,0-3.6,1-4.4,2.6l-16,28.4l-36.4-63c-0.3-0.8-0.5-1.3-1-1.8l-5.7-10.1l1.8-0.8l21.2,10.3c1.5,0.8,3.1,1,4.6,1
				c3.6,0,7.2-1.8,9-5.2l11.6-20.9l15.5-2.8l35.4,62.2H182.8z"/>
			<path fill="#FFFFFF" d="M160.1,98.9c0-21.5-17.6-39-39-39s-39,17.6-39,39s17.6,39,39,39S160.1,120.4,160.1,98.9z M121.1,130.1
				c-17.2,0-31.2-14.1-31.2-31.2s14.1-31.2,31.2-31.2s31.2,14.1,31.2,31.2S138.3,130.1,121.1,130.1z"/>
		</g>
	</g>
</g>
<g>
	<path fill="#FFFFFF" d="M75.8,74.8c-1.1,1.2-2.1,2.2-3.3,3.1c-0.2,0.2-0.4,0.4-0.5,0.6c-1.3,2.2-4,3.3-7.2,1.7
		c-3-1.6-4.1-4.5-2.7-7.3c1.5-2.8,4.5-3.4,7.3-1.9c2.4,1.2,3.4,3.1,3.2,4.9l0.1,0c0.7-0.7,1.4-1.6,1.9-2.3L75.8,74.8z M68.6,72.8
		c-1.9-1-4.1-1-5,0.8c-0.9,1.8,0.3,3.6,2.2,4.6c1.9,1,4.1,0.9,5-0.8C71.7,75.7,70.6,73.9,68.6,72.8z"/>
	<path fill="#FFFFFF" d="M68.4,63.8l4.8,4.3c1.6,1.4,2.9,1.5,3.8,0.4c1-1.1,0.8-2.4-0.8-3.8l-4.8-4.3l1.3-1.5l4.7,4.2
		c2.5,2.3,2.5,4.6,0.7,6.5c-1.7,1.9-3.9,2.2-6.4-0.2L67,65.3L68.4,63.8z"/>
	<path fill="#FFFFFF" d="M81.9,61.7l1.1,3.1L81.3,66l-3.6-11l2.1-1.5l9.3,6.8l-1.7,1.3l-2.6-1.9L81.9,61.7z M83.6,58.7L81.3,57
		c-0.6-0.4-1.1-0.9-1.7-1.3l0,0c0.2,0.6,0.6,1.3,0.8,2l0.9,2.7L83.6,58.7z"/>
	<path fill="#FFFFFF" d="M85.3,50.1l1.8-0.9l4.1,8.4l4.1-2l0.7,1.5L90.1,60L85.3,50.1z"/>
	<path fill="#FFFFFF" d="M95.3,45.7l3.8,10.3l-1.9,0.7l-3.8-10.3L95.3,45.7z"/>
	<path fill="#FFFFFF" d="M100.7,45.8l-3,0.8L97.3,45l8.1-2.1l0.4,1.6l-3.1,0.8l2.3,9l-1.9,0.5L100.7,45.8z"/>
	<path fill="#FFFFFF" d="M111.7,53.1l-0.5-4.6l-4.2-6l2.3-0.3l1.6,2.7c0.5,0.8,0.8,1.4,1.2,2.1l0,0c0.2-0.7,0.4-1.4,0.7-2.3l1-3
		l2.3-0.3l-2.9,6.8l0.5,4.6L111.7,53.1z"/>
	<path fill="#FFFFFF" d="M123.9,49.4l-1.2,3l-2.1-0.1l4.3-10.7l2.6,0.2l2.8,11.2l-2.2-0.1l-0.8-3.2L123.9,49.4z M127.1,48.1
		l-0.7-2.8c-0.2-0.7-0.3-1.4-0.4-2.1l0,0c-0.2,0.6-0.4,1.4-0.7,2l-1,2.6L127.1,48.1z"/>
	<path fill="#FFFFFF" d="M131.8,51.1c0.6,0.5,1.5,1,2.5,1.2c1.3,0.3,2.1-0.2,2.3-1.1c0.2-0.8-0.3-1.4-1.6-2.2
		c-1.6-1-2.6-2.2-2.3-3.7c0.4-1.8,2.1-2.8,4.4-2.3c1.2,0.2,2,0.7,2.5,1.1l-0.8,1.5c-0.3-0.3-1-0.7-2-0.9c-1.2-0.3-1.9,0.3-2.1,0.9
		c-0.2,0.8,0.4,1.3,1.7,2.2c1.7,1.1,2.4,2.2,2.1,3.8c-0.4,1.7-2,3-4.8,2.4c-1.1-0.2-2.3-0.8-2.8-1.3L131.8,51.1z"/>
	<path fill="#FFFFFF" d="M140.1,52.9c0.5,0.6,1.3,1.2,2.3,1.5c1.2,0.4,2.1,0.1,2.4-0.8c0.3-0.8-0.1-1.4-1.3-2.4
		c-1.5-1.2-2.3-2.5-1.8-4c0.6-1.7,2.4-2.5,4.7-1.7c1.1,0.4,1.9,0.9,2.3,1.4l-1,1.4c-0.3-0.3-0.9-0.9-1.9-1.2c-1.2-0.4-2,0.1-2.2,0.7
		c-0.3,0.8,0.2,1.4,1.4,2.4c1.6,1.3,2.1,2.5,1.6,4c-0.6,1.7-2.3,2.7-5,1.8c-1.1-0.4-2.1-1.1-2.6-1.6L140.1,52.9z"/>
	<path fill="#FFFFFF" d="M153.9,48.9l-3,5.7c-1,1.9-0.7,3.2,0.5,3.8c1.3,0.7,2.5,0.2,3.5-1.7l3-5.7l1.8,0.9l-3,5.5
		c-1.6,3-3.9,3.5-6.2,2.2c-2.2-1.2-3-3.2-1.4-6.3l3-5.6L153.9,48.9z"/>
	<path fill="#FFFFFF" d="M162.9,54.3c0.7,0.4,1.6,1,2.5,1.7c1.2,1,1.9,1.9,2.1,2.8c0.1,0.8-0.1,1.6-0.7,2.3
		c-0.9,1.1-2.3,1.2-3.3,0.9l0,0c0.4,0.7,0.3,1.6-0.2,2.6c-0.6,1.3-1.2,2.5-1.3,2.9l-1.6-1.3c0.1-0.4,0.4-1.2,1.1-2.5
		c0.7-1.3,0.6-2-0.3-2.7l-0.8-0.6l-2.9,3.5l-1.5-1.3L162.9,54.3z M161.4,59.3l0.9,0.8c1.1,0.9,2.2,0.8,2.9,0
		c0.8-0.9,0.5-1.9-0.6-2.7c-0.5-0.4-0.8-0.6-1-0.7L161.4,59.3z"/>
	<path fill="#FFFFFF" d="M170.4,70l-2.7-3.2l-2.5,2.1l3,3.6l-1.3,1.1l-4.3-5.1l8.4-7.1l4.1,4.9l-1.3,1.1l-2.8-3.4l-2.2,1.8l2.7,3.2
		L170.4,70z"/>
	<path fill="#FFFFFF" d="M177.4,69.5c0.5,0.7,1.1,1.7,1.7,2.7c0.9,1.8,1.2,3.3,0.9,4.6c-0.3,1.3-1.1,2.5-2.8,3.4
		c-1.7,0.9-3.4,1-4.7,0.5c-1.4-0.5-2.6-1.8-3.6-3.7c-0.5-1-0.9-1.9-1.1-2.5L177.4,69.5z M170,75.5c0.1,0.3,0.3,0.6,0.5,1
		c1.2,2.3,3.2,3.1,5.6,1.8c2.2-1.1,2.8-3,1.6-5.2c-0.3-0.6-0.5-1-0.7-1.2L170,75.5z"/>
</g>
<g>
	<g>
		<path fill="#FFFFFF" d="M73.2,133.8l7.7-5l1,1.6l-2,4.1c-0.5,1.1-1.1,2.1-1.7,3l0,0c1-0.8,1.9-1.4,3.1-2.2l2.7-1.8l0.8,1.3l-7.7,5
			l-0.9-1.4l2.1-4.2c0.5-1,1.1-2.2,1.8-3.1l0,0c-1,0.7-2,1.4-3.2,2.2l-2.7,1.8L73.2,133.8z"/>
		<path fill="#FFFFFF" d="M83,141.9l-2.2,1.5l-1.3-1.1l8-5.3l1.7,1.3l-3.4,9l-1.4-1.1l1-2.5L83,141.9z M85.8,142.5l0.9-2.2
			c0.2-0.5,0.5-1.1,0.7-1.6l0,0c-0.4,0.3-0.9,0.7-1.4,1.1l-2,1.3L85.8,142.5z"/>
		<path fill="#FFFFFF" d="M92,140.5c0.5,0.1,1.4,0.5,2.3,0.9c1.1,0.6,1.7,1,2.1,1.7c0.4,0.6,0.4,1.3,0.1,2c-0.4,0.8-1.2,1.2-2.3,1.1
			l0,0c0.8,0.7,1.2,1.7,0.6,2.9c-0.4,0.7-1,1.1-1.6,1.3c-0.8,0.2-1.9,0-3.4-0.8c-0.8-0.4-1.4-0.8-1.8-1L92,140.5z M89.9,148.3
			c0.2,0.1,0.4,0.3,0.8,0.4c1,0.5,2,0.5,2.5-0.5c0.5-0.9-0.2-1.8-1.2-2.3l-0.7-0.4L89.9,148.3z M91.8,144.5l0.8,0.4
			c1,0.5,1.9,0.3,2.2-0.4c0.4-0.8,0-1.4-1-1.9c-0.4-0.2-0.7-0.3-0.9-0.4L91.8,144.5z"/>
		<path fill="#FFFFFF" d="M98.7,143.6l1.6,0.5l-2.5,7.4l3.6,1.2l-0.4,1.3l-5.2-1.7L98.7,143.6z"/>
		<path fill="#FFFFFF" d="M110,155.9l-1.3-9.4l1.8,0.2l0.4,4.2c0.1,1.1,0.2,2.3,0.3,3.2l0,0c0.2-0.9,0.6-2,1-3.1l1.4-4l1.7,0.2
			l0.5,4.3c0.1,1.1,0.2,2.1,0.2,3.1l0,0c0.3-1,0.6-2,0.9-3.1l1.4-4l1.7,0.2l-3.4,8.9l-1.8-0.2l-0.5-4.4c-0.1-1.1-0.2-1.9-0.2-2.9
			l0,0c-0.3,1-0.5,1.8-0.9,2.8l-1.5,4.2L110,155.9z"/>
		<path fill="#FFFFFF" d="M122.4,147.5l0.2,3.7l3.9-0.2l-0.2-3.7l1.7-0.1l0.4,9.2l-1.7,0.1l-0.2-4l-3.9,0.2l0.2,4l-1.7,0.1l-0.4-9.2
			L122.4,147.5z"/>
		<path fill="#FFFFFF" d="M138.3,150.1c0.5,3-1,5.1-3.5,5.5c-2.5,0.5-4.5-1.2-5-3.8c-0.5-2.8,0.9-5,3.4-5.5
			C135.9,145.8,137.8,147.5,138.3,150.1z M131.6,151.4c0.3,1.8,1.5,3.1,3.1,2.8c1.6-0.3,2.2-1.9,1.9-3.8c-0.3-1.7-1.4-3.2-3.1-2.9
			C131.8,147.9,131.2,149.6,131.6,151.4z"/>
		<path fill="#FFFFFF" d="M142.9,149.1l0.3,1.1l-3.3,1l-0.3-1.1L142.9,149.1z"/>
		<path fill="#FFFFFF" d="M152.9,149c-0.4,0.4-1.4,1.2-2.5,1.7c-1.4,0.6-2.6,0.8-3.8,0.4c-1.1-0.4-2-1.3-2.6-2.5
			c-1.2-2.6-0.1-5.2,2.7-6.5c1-0.5,1.9-0.6,2.4-0.6l0.2,1.4c-0.5,0-1.2,0.1-2.1,0.5c-1.8,0.8-2.6,2.4-1.7,4.4
			c0.9,1.9,2.5,2.5,4.3,1.7c0.5-0.2,0.9-0.5,1.1-0.7l-0.9-2.1l-1.5,0.7l-0.5-1.2l2.9-1.3L152.9,149z"/>
		<path fill="#FFFFFF" d="M159.6,140c-0.8-0.9-1.8-1.9-2.5-2.9l0,0c0.5,1.1,1,2.3,1.4,3.4l1.5,3.9l-1,0.8l-3.4-2.2
			c-1-0.7-2.1-1.4-3-2.2l0,0c0.7,1,1.6,2.1,2.4,3.1l2.2,3l-1.2,1l-5.4-7.5l1.7-1.4l3.3,2.1c0.9,0.6,1.8,1.3,2.7,1.9l0,0
			c-0.4-0.9-0.9-2-1.3-3l-1.4-3.6l1.7-1.4l6.2,6.7l-1.3,1L159.6,140z"/>
		<path fill="#FFFFFF" d="M157.9,134c0.2-0.6,0.6-1.3,1.1-2.3c0.6-1.1,1.3-1.7,2-1.9c0.7-0.2,1.5-0.2,2.2,0.3c0.7,0.4,1.2,1,1.4,1.7
			c0.2,0.9,0,2-0.6,3c-0.2,0.3-0.3,0.5-0.5,0.7l3,1.8l-0.8,1.4L157.9,134z M162.4,134.8c0.2-0.1,0.3-0.4,0.5-0.7
			c0.6-1.1,0.5-2-0.4-2.6c-0.9-0.5-1.7-0.2-2.3,0.8c-0.2,0.4-0.4,0.7-0.4,0.9L162.4,134.8z"/>
	</g>
</g>
</svg>
