<?xml version="1.0" encoding="utf-8"?>
<!-- Generator: Adobe Illustrator 21.0.2, SVG Export Plug-In . SVG Version: 6.00 Build 0)  -->
<svg version="1.1" id="Layer_1" xmlns="http://www.w3.org/2000/svg" xmlns:xlink="http://www.w3.org/1999/xlink" x="0px" y="0px"
	 viewBox="0 0 176.2 186.1" style="enable-background:new 0 0 176.2 186.1;" xml:space="preserve">
<style type="text/css">
	.st0{fill-rule:evenodd;clip-rule:evenodd;fill:#003796;}
	.st1{fill:#003796;}
	.st2{fill:#FFFFFF;}
	.st3{fill-rule:evenodd;clip-rule:evenodd;fill:#FFFFFF;}
</style>
<g>
	<path class="st0" d="M88.7,40.4c30.4,0,55,24.6,55,55c0,30.4-24.6,55-55,55c-30.4,0-55-24.6-55-55C33.8,65,58.4,40.4,88.7,40.4
		L88.7,40.4z"/>
	<path class="st1" d="M29,55.1c0.5,0.9,0.6,1.8,0.4,2.8c-0.1,0.6-0.4,1.3-0.8,2.3c1.1-1.1,2.4-1.5,3.9-1.4c1.1,0.1,1.9,0.2,2.4,0.2
		c1-0.1,1.7-0.4,2.1-0.9c0.2-0.3,0.3-0.7,0.4-1.3l1.5,2c-0.2,0.7-0.4,1.4-0.8,1.9c-0.8,1.2-2,1.9-3.8,2.2c-0.1,0-1.6,0-4.6,0
		c-1.7,0-2.7,0.3-3.1,1c-0.1,0.2-0.2,0.4-0.2,0.7l-2.6-1.7c0.9-0.7,1.6-1.4,2-2.1c1-1.6,0.8-2.9-0.6-3.8c-0.5-0.3-1-0.5-1.6-0.5
		c-0.7,0-1.2,0.1-1.6,0.5l-1.4,2.3c-0.3,0.5-0.5,1-0.8,1.5L18,59.4c4.9-10.1,11.9-18.9,20.4-26c-0.4-0.3-0.8-0.7-1.1-1.3
		c-0.8-1.3-0.6-2.6,0.7-3.8c0.7-0.7,1.6-1.2,2.7-1.6l1.7,1.6c-0.6,0-1.1,0.1-1.4,0.4c-0.4,0.3-0.5,0.7-0.3,1.2
		c0.1,0.3,0.2,0.6,0.4,0.8c0.1,0.2,0.3,0.3,0.4,0.4c13.1-9.9,29.5-15.8,47.2-15.8c2.7,0,5.5,0.1,8.1,0.4l-0.6,2.1
		c-2.3-0.2-4.6-0.3-6.9-0.4L89.8,32l-4.1,0.1l-0.5-14.6c-1.2,0.1-2.4,0.1-3.6,0.2l-4.4,1c1.1,0,1.8,0.9,2.5,1.9c0.6,0.8,1,1.8,1.3,3
		c0.3,1.5,0.1,2.9-0.4,4.2c-0.6,1.3-1.5,2.3-2.9,3.1c-0.4,0.2-0.9,0.4-1.4,0.5c-1.3,0.2-2.6,0.1-3.9-0.4c-1.4-0.6-2.3-1.5-2.5-2.8
		l-1.5-7.9l-1.1,0.2l0,0c-1.2,0.4-2.4,0.7-3.6,1.2l-1.5,0.8l6.3,12.5l-3.7,1.9l-6.3-12.5l-3.1,1.6c1.7-0.2,3.3,1.1,4.8,4.1
		c2.1,4.2,1.5,7.2-2,9c-1.3,0.7-2.6,0.9-3.8,0.6c-1.2-0.3-2.2-1.1-2.9-2.4c-0.7-1.4-0.8-2.6-0.2-3.8c0.5-1,1.5-1.9,3-2.5l1.7,1.2
		c-0.8,0.3-1.4,0.8-1.6,1.4c-0.3,0.6-0.2,1.4,0.2,2.1c0.7,1.5,1.7,1.9,2.7,1.4c1.1-0.6,0.9-2.3-0.4-5.1c-1.5-3.1-3.4-4.7-5.2-4.6
		l-3,1.3c-2,1.2-3.9,2.5-5.8,3.9l-0.1,0.1l9.4,11l-3.1,2.7l-0.8-1c-0.1,0.6-0.6,1.3-1.6,2.1c-1.4,1.2-2.8,1.7-4.3,1.6
		c-1.5-0.1-2.8-0.9-4.1-2.3c-1.3-1.4-1.9-2.8-1.9-4.3c0-1.5,0.7-2.9,2.1-4.1c0.5-0.4,1.1-0.8,1.7-1.1l2.2,1.3
		c-0.5,0.1-0.9,0.3-1.3,0.6c-1.3,1.2-1.2,2.7,0.5,4.7c0.6,0.7,1.2,1.2,1.9,1.5c0.9,0.4,1.6,0.3,2.2-0.2c0.5-0.4,0.8-1,0.9-1.8
		l-6.6-8l-5.1,4.3c-1.8,1.8-3.5,3.7-5.2,5.7l11.7,7.5l-2.2,3.5l-7-4.5l-2.3,3.5C29.4,55.3,29.2,55.2,29,55.1L29,55.1z M108.3,17.7
		c4.1,1.1,8,2.4,11.8,4.1l-1.3-2.6c-0.1-0.2-0.3-0.5-0.6-0.9c-0.2-0.3-0.4-0.5-0.6-0.6c-0.2-0.1-0.5-0.2-0.9-0.2l0.7-1.3
		c0.5,0.1,1.1,0.3,1.6,0.6c0.6,0.3,1.1,0.8,1.6,1.2l1.5,3.1l-0.2-2.7c0-0.7-0.3-1.2-0.8-1.5c-0.3-0.2-0.6-0.2-1-0.2l0.8-1.4
		c0.5,0.1,0.9,0.2,1.3,0.5c1.3,0.8,2,1.7,2.2,2.8l0.6,5.5c7.2,3.8,13.7,8.6,19.4,14.3c0.1-0.2,0.2-0.4,0.3-0.6
		c1.2-1.4,2.6-1.8,4.3-1.4c1.3,0.3,2.6,1.2,4,2.6c1.4,1.4,2.7,3.2,3.7,5.4c1.2,2.6,1.7,5,1.6,7.2l-4-2c0.8-3,0.2-5.5-1.8-7.6
		c-1.9-2-3.5-2.5-4.8-1.6c-0.3,0.2-0.5,0.5-0.6,1c4.6,5.2,8.6,11,11.7,17.2l0.8,1.3l-0.1,0.1l0.2,0.4l-1.8,1.1
		c-0.4-0.8-0.8-1.6-1.1-2.3l-11.7,7.5l-2.2-3.5l1.4-0.9c-1.2-0.6-2.3-1.7-3.3-3.3c-0.9-1.4-1.4-2.7-1.5-4c-0.2-1.7,0.3-2.9,1.5-3.7
		c0.8-0.5,1.7-0.7,2.7-0.5c1,0.2,1.8,0.7,2.5,1.4c-0.5-0.8-0.7-1.5-0.6-2.3c0.1-0.8,0.6-1.4,1.4-1.9c0.8-0.5,1.6-0.7,2.4-0.5
		c-0.7-0.9-1.4-1.7-2.1-2.6l-1.5-1.6l-10.2,9.8l-2.8-3l10.4-9.9c-0.4-0.5-0.9-0.9-1.4-1.3l-1.7-1.5l-9.5,10.9l-3.1-2.7l9.6-10.9
		l-0.4-0.3l0,0l-4.6-3l0.3,9.4l-1.5,2.3c-1.7,0.6-3.4,0.3-5.1-0.8c-1.3-0.9-2.3-1.9-2.8-3.3c-0.6-1.5-0.6-2.9,0.3-4.1l4.5-6.9
		c-0.9-0.5-1.8-1.1-2.7-1.6l-2-0.9l-5.8,13l-3.7-1.7l5.9-13.2l-1-0.4c-1.2-0.5-2.4-1-3.7-1.4l-0.8-0.2l-3.2,13.9l-4.1-0.9l1.6-7
		l-2.8-0.7L106,25l2.8,0.7l1.3-5.2c-0.9-0.3-1.7-0.5-2.6-0.7l0.7-1.8L108.3,17.7L108.3,17.7L108.3,17.7L108.3,17.7z M154.5,55
		c-0.3-0.5-0.6-1.1-1-1.6l-0.3,0.2c-0.1-0.5-0.3-1-0.5-1.3l0-0.1l0,0c-0.3-0.4-0.6-0.6-1-0.8c-0.5-0.2-1.2,0-1.6,0.3
		c-0.6,0.3-0.9,0.8-0.9,1.3c-0.1,0.6,0.1,1.1,0.4,1.7c0.3,0.4,0.6,0.7,0.9,0.9l-2.4,1.5c-0.2-0.5-0.4-0.9-0.6-1.2
		c-0.6-1-1.3-1.4-2.2-1.2c-0.3,0-0.8,0.3-1.5,0.7c-0.5,0.3-0.7,0.9-0.7,1.6c0,0.6,0.3,1.2,0.6,1.8c0.8,1.2,1.8,1.8,3.1,1.8l7.9-5
		L154.5,55L154.5,55z M30.1,50.8l-3-1.9L24,53.6c0.4-0.4,0.9-0.5,1.6-0.5c0.7,0,1.3,0.2,1.8,0.4c0.2,0.1,0.4,0.3,0.6,0.5L30.1,50.8
		L30.1,50.8z M64.8,37.9l0.7,2c0.2-0.8,0.7-1.4,1.5-1.6c0.7-0.2,1.1-0.1,1.3,0.4c0.2,0.7-0.1,1.2-1,1.5c-0.7,0.2-1.5,0.3-2.4,0.1
		c-0.9-0.2-1.5-0.6-1.9-1.2l-1,2.5c2.3,0.7,4.2,0.8,5.9,0.2c3.5-1.2,5-2.7,4.4-4.6c-0.6-1.7-2.1-2.1-4.7-1.2
		C66,36.5,65.1,37.1,64.8,37.9L64.8,37.9z M72.4,19.5l1.1,5.6c0.3,1.4,0.5,2.3,0.8,2.8c0.4,0.7,1,1,1.8,0.8c0.9-0.2,1.4-0.6,1.5-1.4
		c0.1-0.4,0-1.2-0.2-2.3c-0.4-1.9-0.8-3.2-1.2-3.7c-0.5-0.5-1.2-0.7-2.1-0.6l2.1-2.1L72.4,19.5L72.4,19.5z M106.5,22.4
		c-0.2,0.9-0.6,1.6-1.3,2.1c-0.7,0.5-1.5,0.7-2.4,0.5c1.1,0.3,2,0.9,2.5,1.9c0.5,1,0.6,2.1,0.4,3.2c-0.4,1.5-1.2,2.5-2.6,3.1
		c-1.2,0.5-2.6,0.5-4.2,0.2c-3-0.7-5.2-2.4-6.7-5.2l3.1-2.3c0.1,2.4,1,3.8,2.7,4.2c0.6,0.1,1.3,0.1,1.9-0.2c0.6-0.3,1-0.7,1.1-1.3
		c0.4-1.9-0.3-3.1-2.1-3.6c-0.4-0.1-0.8-0.2-1.3-0.2l0.5-2.3c0.2,0.2,0.5,0.3,0.8,0.4c0.7,0.2,1.4,0.1,2-0.2c0.6-0.3,1-0.8,1.2-1.5
		c0.1-0.5,0-1-0.4-1.4c-0.4-0.4-0.9-0.7-1.5-0.9c-1.2-0.3-2.5,0-4,0.8l0.6-2.8c1.3-0.4,2.8-0.5,4.5-0.1c1.9,0.4,3.2,1.1,4,1.9
		C106.4,20,106.8,21.2,106.5,22.4L106.5,22.4z M130.3,41l-0.1-9l-3.3,5.1c-1,1.5-0.7,2.7,0.7,3.7C128.7,41.4,129.6,41.5,130.3,41
		L130.3,41z"/>
	<path class="st1" d="M12.3,113.2c-0.2-0.9-0.3-1.8-0.2-2.6c0-0.8,0.2-1.6,0.3-2.2l-0.9-0.6l-0.2-0.9l5.3-1.4l0.2,0.9
		c-0.5,0.3-0.9,0.7-1.4,1.1c-0.5,0.4-0.9,0.9-1.3,1.4c-0.4,0.5-0.6,1.1-0.8,1.7c-0.2,0.6-0.2,1.2,0,1.9c0.2,0.9,0.6,1.6,1.2,2
		c0.6,0.4,1.2,0.5,1.9,0.4c0.6-0.1,1-0.5,1.3-1c0.3-0.5,0.5-1.3,0.6-2.2c0.1-0.6,0.1-1.2,0.2-1.7c0-0.5,0.1-1,0.2-1.5
		c0.2-1.1,0.6-2,1.2-2.6c0.6-0.7,1.4-1.1,2.3-1.3c0.6-0.1,1.2-0.1,1.8,0c0.6,0.1,1.2,0.4,1.7,0.8c0.5,0.4,1,0.9,1.4,1.5
		c0.4,0.7,0.7,1.4,0.9,2.3c0.2,0.8,0.3,1.6,0.2,2.4c-0.1,0.8-0.2,1.4-0.3,1.9l0.8,0.5l0.2,0.9l-5,1.3l-0.2-0.9
		c0.5-0.3,1-0.7,1.5-1.1c0.5-0.4,0.9-0.8,1.2-1.2c0.3-0.4,0.6-0.9,0.7-1.4c0.1-0.5,0.1-1.1,0-1.7c-0.2-0.8-0.5-1.3-1.1-1.7
		c-0.5-0.4-1.1-0.5-1.7-0.4c-0.6,0.1-1,0.5-1.3,1c-0.3,0.5-0.5,1.2-0.5,2.2c-0.1,0.6-0.1,1.1-0.2,1.7c-0.1,0.6-0.1,1.1-0.2,1.5
		c-0.2,1.1-0.5,2-1.1,2.7c-0.6,0.7-1.4,1.1-2.4,1.4c-0.6,0.1-1.3,0.1-2,0c-0.7-0.2-1.3-0.4-1.8-0.9c-0.6-0.5-1.1-1-1.5-1.7
		C12.9,115,12.5,114.1,12.3,113.2L12.3,113.2z M20.2,132.7c-0.3-0.2-0.5-0.5-0.8-0.9c-0.3-0.3-0.5-0.7-0.7-1.2
		c-0.4-0.8-0.5-1.4-0.4-1.9c0.1-0.5,0.3-0.9,0.7-1.2l0-0.1c-0.3-0.1-0.6-0.3-0.9-0.4c-0.3-0.1-0.5-0.3-0.7-0.5
		c-0.3-0.2-0.5-0.5-0.7-0.7c-0.2-0.3-0.4-0.6-0.6-1.1c-0.3-0.8-0.4-1.5-0.2-2.2c0.2-0.7,0.7-1.3,1.4-1.6c0.4-0.2,0.8-0.3,1.2-0.3
		c0.4,0,0.7,0,1,0.1c0.3,0.1,0.6,0.3,0.8,0.4c0.3,0.2,0.5,0.4,0.8,0.7c0.5,0.5,1,1.1,1.6,1.8c0.6,0.7,1.1,1.2,1.4,1.5l0.9-0.4
		c0.2-0.1,0.4-0.2,0.6-0.3c0.3-0.1,0.5-0.3,0.6-0.5c0.2-0.2,0.3-0.4,0.3-0.7c0.1-0.3,0-0.6-0.1-0.9c-0.1-0.3-0.3-0.5-0.5-0.7
		c-0.2-0.2-0.3-0.3-0.5-0.4c-0.1,0.1-0.3,0.2-0.5,0.4c-0.2,0.2-0.5,0.4-0.7,0.5c-0.1,0-0.3,0.1-0.5,0.1c-0.2,0-0.4,0-0.5-0.1
		c-0.2-0.1-0.4-0.2-0.5-0.4c-0.2-0.2-0.3-0.4-0.5-0.8c-0.2-0.5-0.3-1-0.2-1.4c0.1-0.4,0.4-0.7,0.8-0.9c0.4-0.2,0.8-0.2,1.2,0
		c0.4,0.2,0.8,0.4,1.2,0.7c0.4,0.3,0.7,0.7,1.1,1.2c0.4,0.5,0.6,1,0.8,1.4c0.3,0.6,0.5,1.2,0.7,1.8c0.2,0.6,0.2,1.1,0.2,1.6
		c0,0.5-0.2,1-0.6,1.4c-0.3,0.4-0.8,0.8-1.5,1.1c-0.7,0.3-1.6,0.7-2.6,1.1c-1,0.4-1.7,0.7-2,0.9c-0.3,0.1-0.5,0.3-0.6,0.4
		c-0.1,0.2-0.2,0.4-0.2,0.6c0,0.1,0,0.3,0.1,0.6c0.1,0.2,0.2,0.5,0.3,0.6L20.2,132.7L20.2,132.7z M23.1,125.6
		c-0.3-0.3-0.6-0.6-0.9-0.9c-0.3-0.3-0.6-0.5-0.9-0.7c-0.3-0.2-0.6-0.2-1-0.3c-0.3,0-0.7,0.1-1.1,0.2c-0.5,0.2-0.8,0.5-0.9,0.9
		c-0.1,0.3-0.1,0.7,0,1c0.2,0.4,0.4,0.6,0.6,0.8c0.3,0.2,0.5,0.3,0.8,0.4L23.1,125.6L23.1,125.6z M34.2,138.3
		c-0.5,0.3-0.9,0.4-1.5,0.4c-0.5,0-1-0.3-1.3-0.8c-0.3-0.4-0.4-0.9-0.4-1.3c0-0.4,0.2-0.8,0.7-1.1c0.2-0.1,0.4-0.2,0.5-0.3
		c0.1-0.1,0.3-0.1,0.4-0.1c-0.2-0.3-0.5-0.5-0.9-0.7c-0.4-0.2-0.8-0.3-1.2-0.3l-4.9,3.3c-0.2,0.1-0.4,0.3-0.4,0.4
		c-0.1,0.2-0.1,0.3-0.1,0.5c0,0.2,0.1,0.4,0.3,0.7c0.2,0.3,0.3,0.6,0.4,0.7l-0.7,0.4l-4-5.9l0.7-0.4c0.1,0.1,0.2,0.3,0.4,0.4
		c0.1,0.1,0.2,0.2,0.3,0.3c0.2,0.1,0.4,0.2,0.6,0.2c0.2,0,0.4-0.1,0.6-0.3l5.2-3.5c0.2-0.1,0.4-0.3,0.5-0.5c0.1-0.2,0.1-0.4,0.2-0.6
		c0-0.2,0-0.3-0.1-0.5c-0.1-0.2-0.2-0.4-0.3-0.6l0.7-0.4l3.1,4.1l0,0.2l-1.3,0.9l0,0c0.7,0.1,1.4,0.3,2,0.5c0.6,0.3,1,0.7,1.4,1.2
		c0.4,0.5,0.5,1.1,0.4,1.7C35.1,137.5,34.8,137.9,34.2,138.3L34.2,138.3z M44.3,147.2c-0.3-0.2-0.6-0.3-0.9-0.4
		c-0.4-0.1-0.7-0.1-1.2,0.1c-1.1,0.4-2.2,0.7-3.3,1.1c-1.1,0.4-2.2,0.8-3.2,1.1c-0.3,0.1-0.7,0.3-1.2,0.5c-0.5,0.2-0.9,0.4-1.2,0.6
		l-1.4-1.4c0.8-1.9,1.4-3.5,1.9-4.8c0.5-1.3,1-2.7,1.6-4.1c0.1-0.3,0.2-0.7,0.1-1.1c-0.1-0.4-0.2-0.7-0.4-0.9l0.6-0.6l4.6,4.8
		l-0.6,0.6c-0.2-0.2-0.4-0.3-0.7-0.5c-0.3-0.2-0.5-0.2-0.6-0.1c0,0-0.1,0.1-0.1,0.2c0,0.1-0.1,0.2-0.1,0.3c-0.2,0.5-0.6,1.3-1,2.4
		c-0.4,1-0.8,2.2-1.3,3.3c0.8-0.3,1.6-0.6,2.4-0.9c0.8-0.3,1.7-0.7,2.9-1.1c0.2-0.1,0.3-0.1,0.4-0.2c0.1-0.1,0.1-0.1,0.2-0.1
		c0.1-0.1,0.1-0.2,0.1-0.4c0-0.2-0.1-0.3-0.1-0.5c-0.1-0.2-0.2-0.3-0.2-0.5c-0.1-0.1-0.2-0.3-0.2-0.3l0.6-0.6l3.1,3.2L44.3,147.2
		L44.3,147.2z M48.3,161.8c-0.3-0.1-0.7-0.2-1.1-0.3c-0.4-0.2-0.8-0.4-1.2-0.6c-0.7-0.5-1.2-1-1.3-1.4c-0.2-0.5-0.2-0.9,0-1.4
		l-0.1,0c-0.3,0.1-0.7,0.1-0.9,0.1c-0.3,0-0.6,0-0.8-0.1c-0.4-0.1-0.7-0.2-1-0.3c-0.3-0.1-0.7-0.3-1.1-0.7c-0.7-0.5-1.1-1.1-1.3-1.8
		c-0.2-0.7-0.1-1.4,0.4-2.1c0.3-0.4,0.6-0.7,0.8-0.9c0.3-0.2,0.6-0.3,1-0.4c0.3-0.1,0.6-0.1,0.9,0c0.3,0,0.7,0.1,1,0.2
		c0.7,0.2,1.4,0.4,2.3,0.8c0.9,0.3,1.6,0.5,2,0.6l0.6-0.8c0.1-0.1,0.2-0.3,0.4-0.6c0.1-0.3,0.2-0.5,0.3-0.7c0.1-0.2,0-0.5,0-0.8
		c-0.1-0.3-0.3-0.5-0.6-0.7c-0.3-0.2-0.5-0.3-0.7-0.4c-0.2-0.1-0.4-0.1-0.6-0.1c-0.1,0.1-0.1,0.3-0.2,0.6c-0.1,0.3-0.2,0.6-0.4,0.8
		c-0.1,0.1-0.2,0.2-0.3,0.3c-0.2,0.1-0.3,0.2-0.5,0.2c-0.2,0-0.4,0-0.6,0c-0.2-0.1-0.5-0.2-0.8-0.5c-0.5-0.4-0.8-0.7-0.9-1.1
		c-0.1-0.4,0-0.8,0.3-1.2c0.2-0.3,0.6-0.5,1-0.6c0.4-0.1,0.9-0.1,1.4,0c0.5,0.1,1,0.3,1.6,0.5c0.5,0.2,1,0.5,1.4,0.8
		c0.6,0.4,1.1,0.8,1.5,1.2c0.4,0.4,0.7,0.8,1,1.3c0.2,0.5,0.3,1,0.2,1.5c-0.1,0.5-0.3,1.1-0.8,1.7c-0.5,0.7-1,1.4-1.7,2.3
		c-0.7,0.9-1.1,1.5-1.3,1.8c-0.2,0.3-0.3,0.5-0.3,0.7c0,0.2,0,0.4,0.1,0.6c0.1,0.1,0.2,0.3,0.4,0.4c0.2,0.2,0.4,0.3,0.6,0.4
		L48.3,161.8L48.3,161.8z M47.3,154.2c-0.4-0.1-0.8-0.2-1.3-0.3c-0.4-0.1-0.8-0.1-1.1-0.1c-0.3,0-0.7,0.1-1,0.3
		c-0.3,0.2-0.6,0.4-0.8,0.8c-0.3,0.5-0.5,0.9-0.4,1.2c0.1,0.4,0.2,0.6,0.6,0.9c0.3,0.2,0.6,0.4,0.9,0.4c0.3,0,0.6,0,0.9-0.1
		L47.3,154.2L47.3,154.2z M67.9,164.4c-0.2-0.1-0.4-0.1-0.6-0.2c-0.2,0-0.4-0.1-0.7-0.1c-0.3,0-0.5,0-0.7,0.2
		c-0.2,0.2-0.3,0.3-0.4,0.6l-0.7,1.6c-0.1,0.3-0.3,0.6-0.3,0.8c-0.1,0.2-0.2,0.5-0.3,0.8c-0.8,0.1-2,0-3.4-0.2
		c-1.4-0.2-2.7-0.6-3.8-1c-1-0.4-1.9-1-2.6-1.7c-0.7-0.7-1.3-1.5-1.7-2.4c-0.4-0.9-0.6-1.9-0.6-3c0-1.1,0.3-2.2,0.8-3.4
		c0.5-1.1,1.1-2,1.9-2.8c0.8-0.8,1.6-1.3,2.6-1.7c1-0.4,2-0.5,3.1-0.5c1.1,0.1,2.3,0.4,3.4,0.9c0.8,0.3,1.5,0.8,2.1,1.3
		c0.6,0.5,1.1,0.9,1.4,1.4l0.8-0.3l0.8,0.4l-2.2,5.1l-0.9-0.4c0.2-1.8,0.1-3.2-0.3-4.2c-0.4-1-1.1-1.8-2.1-2.3
		c-1.3-0.6-2.5-0.4-3.6,0.4c-1.2,0.8-2.2,2.2-3,4.1c-0.9,2.1-1.3,3.8-1.1,5.3c0.2,1.5,0.9,2.5,2.1,3c0.6,0.3,1.1,0.4,1.7,0.4
		c0.5,0,1,0,1.3-0.1l1.2-2.8c0.1-0.2,0.1-0.5,0.1-0.6c0-0.2-0.1-0.4-0.3-0.6c-0.2-0.2-0.4-0.4-0.6-0.6c-0.3-0.2-0.5-0.3-0.7-0.5
		l0.3-0.8l7.2,3.2L67.9,164.4L67.9,164.4z M81,172.7l-5.1-0.7l-0.1-0.2l0.3-1.4l-0.1,0c-0.3,0.2-0.6,0.3-0.8,0.5
		c-0.3,0.2-0.6,0.3-0.9,0.4c-0.4,0.1-0.8,0.2-1.1,0.2c-0.3,0-0.8,0-1.4-0.1c-1.1-0.2-1.8-0.7-2.3-1.4c-0.4-0.7-0.6-1.7-0.3-2.9
		l0.9-4.7c0.1-0.3,0-0.5,0-0.7c-0.1-0.2-0.2-0.4-0.3-0.5c-0.1-0.1-0.3-0.2-0.5-0.3c-0.2-0.1-0.4-0.2-0.6-0.2l0.2-0.8l5.1,0.7
		l0.1,0.2l-1.4,7c-0.1,0.7-0.1,1.3,0.1,1.7c0.2,0.4,0.6,0.6,1,0.7c0.5,0.1,1,0.1,1.4-0.1c0.4-0.2,0.8-0.4,1-0.7l1.1-5.7
		c0-0.2,0-0.5,0-0.7c-0.1-0.2-0.2-0.4-0.3-0.5c-0.1-0.1-0.3-0.2-0.5-0.3c-0.2-0.1-0.5-0.1-0.7-0.2l0.1-0.8l5.2,0.7l0.1,0.2l-1.6,8.1
		c0,0.2,0,0.5,0,0.7c0.1,0.2,0.2,0.4,0.3,0.5c0.1,0.1,0.3,0.2,0.5,0.3c0.2,0.1,0.4,0.1,0.6,0.2L81,172.7L81,172.7z M97,172.8
		l-6.5,0.3l0-0.8c0.1,0,0.3,0,0.5-0.1c0.2,0,0.3-0.1,0.4-0.1c0.1-0.1,0.3-0.2,0.3-0.4c0.1-0.2,0.1-0.4,0.1-0.7l-0.2-5
		c0-0.7-0.2-1.3-0.5-1.6c-0.3-0.4-0.7-0.5-1.2-0.5c-0.3,0-0.5,0.1-0.8,0.2c-0.2,0.1-0.5,0.2-0.7,0.4c-0.2,0.2-0.4,0.3-0.5,0.5
		c-0.1,0.2-0.2,0.3-0.3,0.4l0.2,5.8c0,0.3,0.1,0.5,0.1,0.6c0.1,0.2,0.2,0.3,0.4,0.4c0.1,0.1,0.3,0.1,0.4,0.2c0.2,0,0.3,0.1,0.5,0.1
		l0,0.8l-6.5,0.3l0-0.8c0.2,0,0.4,0,0.5-0.1c0.2,0,0.3-0.1,0.5-0.1c0.2-0.1,0.4-0.2,0.5-0.4c0.1-0.2,0.1-0.4,0.1-0.6l-0.3-6.2
		c0-0.2-0.1-0.4-0.2-0.6c-0.1-0.2-0.3-0.4-0.5-0.5c-0.1-0.1-0.3-0.1-0.5-0.2c-0.2,0-0.4-0.1-0.7-0.1l0-0.8l5.1-0.5l0.2,0.2l0.1,1.5
		l0,0c0.2-0.2,0.4-0.4,0.7-0.7c0.3-0.3,0.5-0.5,0.8-0.6c0.3-0.2,0.6-0.3,1-0.5c0.4-0.1,0.9-0.2,1.4-0.2c1.2,0,2,0.2,2.7,0.9
		c0.6,0.6,0.9,1.5,1,2.6l0.2,5.3c0,0.3,0.1,0.5,0.1,0.6c0.1,0.2,0.2,0.3,0.5,0.4c0.1,0,0.3,0.1,0.4,0.1c0.2,0,0.4,0.1,0.6,0.1
		L97,172.8L97,172.8z M115.2,168.9l-8.1,1.9l-0.2-0.8c0.4-0.1,0.8-0.3,1.3-0.5c0.5-0.2,0.7-0.4,0.7-0.6c0-0.1,0-0.1-0.1-0.2
		c0-0.1-0.1-0.2-0.2-0.3l-2-2.8l-5.1,1.2c-0.1,0.3-0.1,0.7-0.2,1.1c-0.1,0.4-0.1,0.8-0.1,1.1c0,0.4-0.1,0.7,0,0.9c0,0.2,0,0.3,0,0.4
		c0.1,0.2,0.3,0.4,0.6,0.5c0.4,0.1,1,0.1,1.8,0l0.2,0.8l-6.1,1.4l-0.2-0.8c0.2-0.1,0.5-0.2,0.8-0.3c0.3-0.1,0.5-0.3,0.6-0.4
		c0.2-0.2,0.4-0.5,0.6-0.8c0.1-0.3,0.2-0.6,0.3-1c0.4-2.1,0.7-4.3,1.1-6.5c0.4-2.2,0.8-4.5,1.2-7.1l2.1-0.5c2.1,3.1,3.8,5.5,5,7.2
		c1.2,1.8,2.3,3.2,3.1,4.4c0.1,0.2,0.3,0.4,0.5,0.5c0.2,0.1,0.4,0.3,0.7,0.3c0.2,0.1,0.5,0.1,0.7,0.1c0.3,0,0.5,0,0.7-0.1
		L115.2,168.9L115.2,168.9z M106,164.7l-3.4-4.9l-0.9,5.9L106,164.7L106,164.7z M128.6,162.4l-4.5,2.4l-0.2-0.1l-0.6-1.3l-0.1,0
		c-0.1,0.3-0.3,0.6-0.4,0.9c-0.1,0.3-0.3,0.6-0.5,0.9c-0.3,0.3-0.5,0.6-0.8,0.8c-0.3,0.2-0.7,0.5-1.2,0.7c-1,0.4-1.9,0.5-2.7,0.1
		c-0.8-0.4-1.4-1.1-1.9-2.2l-2-4.4c-0.1-0.3-0.3-0.4-0.4-0.6c-0.2-0.1-0.4-0.2-0.6-0.2c-0.2,0-0.4,0-0.6,0c-0.2,0-0.4,0.1-0.6,0.2
		l-0.3-0.7l4.6-2.4l0.2,0.1l2.9,6.5c0.3,0.7,0.7,1.1,1.1,1.3c0.4,0.2,0.8,0.2,1.3,0c0.5-0.2,0.8-0.5,1.1-0.9
		c0.3-0.4,0.4-0.8,0.5-1.1l-2.4-5.3c-0.1-0.2-0.2-0.4-0.4-0.5c-0.2-0.1-0.4-0.2-0.6-0.3c-0.2,0-0.3,0-0.6,0.1
		c-0.2,0.1-0.5,0.2-0.7,0.2l-0.3-0.7l4.6-2.4l0.2,0.1l3.4,7.5c0.1,0.2,0.2,0.4,0.4,0.5c0.2,0.1,0.4,0.2,0.6,0.2c0.2,0,0.3,0,0.6-0.1
		c0.2-0.1,0.4-0.1,0.6-0.2L128.6,162.4L128.6,162.4z M134.5,158.6c-0.6,0.4-1.2,0.7-1.8,0.9c-0.7,0.2-1.2,0.3-1.6,0.4l0.2,0.8
		l-0.7,0.5l-2.4-3.2l0.6-0.5c0.3,0.2,0.6,0.4,1.1,0.6c0.4,0.2,0.9,0.3,1.3,0.4c0.5,0.1,0.9,0.1,1.4,0c0.5-0.1,0.9-0.2,1.3-0.5
		c0.5-0.4,0.9-0.8,1-1.1c0.1-0.4,0-0.8-0.3-1.2c-0.2-0.2-0.4-0.4-0.6-0.5c-0.2-0.1-0.5-0.1-0.8-0.1c-0.3,0-0.6,0.1-1,0.2
		c-0.3,0.1-0.7,0.2-1.2,0.4c-0.5,0.2-0.9,0.3-1.3,0.4c-0.4,0.1-0.8,0.1-1.3,0.1c-0.4,0-0.8-0.2-1.2-0.4c-0.4-0.2-0.7-0.5-1-1
		c-0.6-0.8-0.7-1.7-0.4-2.7c0.3-1,1.1-1.9,2.2-2.7c0.5-0.4,1.1-0.7,1.6-0.9c0.5-0.2,1-0.4,1.4-0.4l-0.2-0.6l0.7-0.5l2.2,2.9
		l-0.6,0.4c-0.6-0.5-1.4-0.7-2.2-0.8c-0.8-0.1-1.5,0.1-2.1,0.5c-0.5,0.3-0.7,0.7-0.9,1c-0.1,0.4-0.1,0.7,0.2,1.1
		c0.3,0.4,0.7,0.6,1.2,0.6c0.5-0.1,1.2-0.2,2-0.5c1.2-0.5,2.3-0.6,3.1-0.5c0.8,0.1,1.5,0.5,2,1.3c0.7,1,0.8,2,0.4,3
		C136.5,156.8,135.7,157.8,134.5,158.6L134.5,158.6z M149.9,144l-4.5,4.6l-0.6-0.6c0.1-0.1,0.2-0.2,0.3-0.4c0.1-0.2,0.2-0.3,0.2-0.4
		c0-0.2,0-0.3,0-0.5c-0.1-0.1-0.2-0.3-0.4-0.5l-3.6-3.5c-0.5-0.5-1-0.8-1.5-0.9c-0.5-0.1-0.9,0.1-1.2,0.5c-0.2,0.2-0.4,0.4-0.5,0.7
		c-0.1,0.2-0.2,0.5-0.2,0.8c0,0.2-0.1,0.5,0,0.7c0,0.2,0,0.4,0.1,0.5l4.2,4c0.2,0.2,0.4,0.3,0.5,0.4c0.2,0.1,0.3,0.1,0.5,0
		c0.1,0,0.3-0.1,0.4-0.2c0.2-0.1,0.3-0.2,0.4-0.3l0.6,0.6l-4.5,4.7l-0.6-0.5c0.1-0.1,0.2-0.3,0.3-0.4c0.1-0.1,0.2-0.3,0.2-0.4
		c0.1-0.2,0.1-0.4,0.1-0.6c-0.1-0.2-0.2-0.3-0.4-0.5l-8.6-8.3c-0.2-0.2-0.4-0.3-0.6-0.4c-0.3-0.1-0.5-0.1-0.7-0.1
		c-0.2,0-0.4,0.1-0.6,0.3c-0.2,0.2-0.4,0.3-0.6,0.5l-0.6-0.6l3.5-4l0.2,0l5.3,5.1l0,0c0-0.4,0-0.7,0-1c0-0.3,0.1-0.6,0.1-1
		c0.1-0.3,0.2-0.7,0.4-1.1c0.2-0.4,0.5-0.8,0.8-1.1c0.8-0.8,1.6-1.2,2.5-1.2c0.9,0,1.7,0.4,2.5,1.2l3.8,3.7c0.2,0.2,0.4,0.3,0.5,0.4
		c0.2,0.1,0.4,0,0.6-0.1c0.1-0.1,0.3-0.1,0.4-0.2c0.1-0.1,0.3-0.2,0.5-0.3L149.9,144L149.9,144z M158.2,130.6l-2.5,4.7l-0.2,0.1
		l-0.8-0.5l-0.1,0.1c0.1,0.5,0.2,1.1,0.1,1.7c-0.1,0.7-0.3,1.2-0.6,1.8c-0.8,1.2-1.8,2-3.2,2.2c-1.4,0.2-2.8-0.1-4.3-1
		c-1.3-0.8-2.1-1.9-2.5-3.4c-0.4-1.5-0.2-2.8,0.6-4.1c0.3-0.5,0.7-0.9,1-1.3c0.4-0.4,0.7-0.6,1-0.8l-3-1.8c-0.2-0.1-0.5-0.2-0.7-0.3
		c-0.3,0-0.5,0-0.7,0.1c-0.2,0.1-0.5,0.3-0.7,0.5c-0.2,0.2-0.4,0.5-0.6,0.8l-0.7-0.4l2.8-5.1l0.2,0l12,7.4c0.2,0.1,0.5,0.2,0.7,0.2
		c0.2,0,0.4,0,0.6-0.1c0.1-0.1,0.3-0.2,0.5-0.5c0.2-0.2,0.3-0.4,0.4-0.6L158.2,130.6L158.2,130.6z M153.7,134.3l-5.2-3.2
		c-0.2,0-0.4-0.1-0.6-0.1c-0.2,0-0.4,0-0.7,0c-0.2,0-0.4,0.1-0.6,0.3c-0.2,0.1-0.4,0.3-0.6,0.6c-0.4,0.6-0.3,1.3,0.1,2.1
		c0.5,0.8,1.3,1.6,2.6,2.4c0.5,0.3,1,0.5,1.4,0.7c0.4,0.2,0.9,0.3,1.3,0.3c0.4,0,0.8,0,1.2-0.2c0.4-0.2,0.7-0.4,0.9-0.8
		c0.2-0.4,0.3-0.7,0.3-1.1C153.9,135,153.8,134.6,153.7,134.3L153.7,134.3z M164.4,116.2l-2.4,6l-0.7-0.3c0-0.1,0.1-0.3,0.1-0.5
		c0.1-0.2,0.1-0.3,0.1-0.4c0-0.2-0.1-0.3-0.2-0.4c-0.1-0.1-0.3-0.2-0.6-0.3l-4.7-1.9c-0.7-0.3-1.2-0.4-1.7-0.2
		c-0.4,0.1-0.8,0.4-1,0.9c-0.1,0.3-0.2,0.5-0.2,0.8c0,0.3,0,0.5,0.1,0.8c0.1,0.2,0.1,0.5,0.2,0.6c0.1,0.2,0.2,0.3,0.2,0.4l5.3,2.2
		c0.2,0.1,0.5,0.2,0.6,0.2c0.2,0,0.3-0.1,0.5-0.2c0.1-0.1,0.2-0.2,0.3-0.3c0.1-0.1,0.2-0.3,0.3-0.4l0.7,0.3l-2.5,6l-0.7-0.3
		c0.1-0.2,0.1-0.4,0.2-0.5c0-0.2,0.1-0.3,0.1-0.5c0-0.2,0-0.4-0.2-0.6c-0.1-0.1-0.3-0.3-0.5-0.4l-11.1-4.5c-0.2-0.1-0.5-0.1-0.7-0.1
		c-0.3,0-0.5,0.1-0.7,0.2c-0.1,0.1-0.3,0.3-0.4,0.5c-0.2,0.2-0.3,0.4-0.4,0.6l-0.7-0.3l1.8-5l0.2-0.1l6.8,2.8l0,0
		c-0.1-0.3-0.2-0.7-0.3-0.9c-0.1-0.3-0.2-0.6-0.2-1c-0.1-0.3-0.1-0.7,0-1.1c0-0.4,0.2-0.9,0.4-1.3c0.4-1.1,1.1-1.7,1.9-2
		c0.8-0.3,1.8-0.2,2.8,0.2l4.9,2c0.2,0.1,0.5,0.1,0.6,0.1c0.2,0,0.3-0.1,0.5-0.3c0.1-0.1,0.2-0.2,0.3-0.3c0.1-0.1,0.2-0.3,0.3-0.5
		L164.4,116.2L164.4,116.2z M166.2,107.7l-1.6,6.6l-0.8-0.2c0-0.2,0.1-0.4,0.1-0.5c0-0.2,0-0.3,0-0.5c0-0.2-0.1-0.4-0.3-0.5
		c-0.1-0.1-0.3-0.2-0.6-0.3l-6.1-1.4c-0.2-0.1-0.5-0.1-0.7,0c-0.2,0.1-0.4,0.2-0.5,0.3c-0.1,0.1-0.2,0.3-0.4,0.5
		c-0.1,0.2-0.2,0.5-0.3,0.7l-0.8-0.2l0.9-5.2l0.2-0.1l8.3,2c0.2,0.1,0.5,0.1,0.7,0c0.2-0.1,0.4-0.2,0.5-0.4c0.1-0.1,0.2-0.3,0.3-0.4
		c0.1-0.2,0.2-0.3,0.2-0.5L166.2,107.7L166.2,107.7z M151.6,105.8c0.5,0.1,0.9,0.4,1.2,0.9c0.3,0.5,0.4,1,0.2,1.6
		c-0.1,0.6-0.4,1-0.9,1.3c-0.5,0.3-1,0.4-1.5,0.3c-0.5-0.1-0.9-0.4-1.2-0.9c-0.3-0.5-0.4-1-0.2-1.6c0.1-0.6,0.4-1,0.9-1.3
		C150.6,105.8,151.1,105.7,151.6,105.8L151.6,105.8z"/>
	<path class="st2" d="M88.7,41.8c14.8,0,28.2,6,37.9,15.7c9.7,9.7,15.7,23.1,15.7,37.9c0,14.8-6,28.2-15.7,37.9
		c-9.7,9.7-23.1,15.7-37.9,15.7c-14.8,0-28.2-6-37.9-15.7c-9.7-9.7-15.7-23.1-15.7-37.9c0-14.8,6-28.2,15.7-37.9
		C60.6,47.8,74,41.8,88.7,41.8L88.7,41.8z M125.9,58.2c-9.5-9.5-22.6-15.4-37.1-15.4c-14.5,0-27.6,5.9-37.1,15.4
		c-9.5,9.5-15.4,22.6-15.4,37.1c0,14.5,5.9,27.6,15.4,37.1c9.5,9.5,22.6,15.4,37.1,15.4c14.5,0,27.6-5.9,37.1-15.4
		c9.5-9.5,15.4-22.6,15.4-37.1C141.3,80.8,135.4,67.7,125.9,58.2L125.9,58.2z M88.7,45c14,0,26.6,5.6,35.8,14.7
		c9.2,9.1,14.8,21.7,14.8,35.6c0,13.9-5.7,26.5-14.8,35.6c-9.2,9.1-21.8,14.7-35.8,14.7c-14,0-26.6-5.6-35.8-14.7
		c-9.2-9.1-14.8-21.7-14.8-35.6c0-13.9,5.7-26.5,14.8-35.6C62.1,50.6,74.8,45,88.7,45L88.7,45z M123.8,60.5
		c-9-8.9-21.3-14.4-35-14.4c-13.7,0-26.1,5.5-35,14.4c-9,8.9-14.5,21.2-14.5,34.8c0,13.6,5.5,25.9,14.5,34.8
		c9,8.9,21.3,14.4,35,14.4c13.7,0,26.1-5.5,35-14.4c9-8.9,14.5-21.2,14.5-34.8C138.3,81.7,132.7,69.4,123.8,60.5L123.8,60.5z
		 M88.7,48.2c13.1,0,25.1,5.3,33.7,13.8c8.6,8.5,14,20.3,14,33.3c0,13-5.3,24.8-14,33.3c-8.6,8.5-20.5,13.8-33.7,13.8
		c-13.1,0-25.1-5.3-33.7-13.8c-8.6-8.5-14-20.3-14-33.3c0-13,5.3-24.8,14-33.3C63.7,53.5,75.6,48.2,88.7,48.2L88.7,48.2z
		 M121.7,62.8c-8.4-8.3-20.1-13.5-32.9-13.5c-12.9,0-24.5,5.2-32.9,13.5c-8.4,8.3-13.6,19.9-13.6,32.6c0,12.7,5.2,24.2,13.6,32.6
		c8.4,8.3,20.1,13.5,32.9,13.5s24.5-5.2,32.9-13.5c8.4-8.3,13.6-19.9,13.6-32.6C135.3,82.6,130.1,71.1,121.7,62.8L121.7,62.8z
		 M88.7,51.4c12.3,0,23.5,4.9,31.6,12.9c8.1,7.9,13.1,18.9,13.1,31.1c0,12.1-5,23.1-13.1,31.1c-8.1,7.9-19.2,12.9-31.6,12.9
		c-12.3,0-23.5-4.9-31.6-12.9c-8.1-7.9-13.1-18.9-13.1-31.1c0-12.1,5-23.1,13.1-31.1C65.3,56.4,76.4,51.4,88.7,51.4L88.7,51.4z
		 M119.6,65.1c-7.9-7.8-18.8-12.5-30.8-12.5c-12,0-22.9,4.8-30.8,12.5C50,72.8,45.2,83.5,45.2,95.3c0,11.8,4.9,22.5,12.8,30.3
		c7.9,7.8,18.8,12.5,30.8,12.5c12,0,22.9-4.8,30.8-12.5c7.9-7.8,12.8-18.5,12.8-30.3C132.3,83.5,127.5,72.8,119.6,65.1L119.6,65.1z"
		/>
	<path class="st3" d="M87,68.7c-1.2-3.1-2-6.5-0.9-9.8c0.6-1.7,2.1-2.3,3.4-0.9c2.3,2.4,0.5,8.9-0.5,11.9c2.6,8.7,8.8,19,16.1,24.6
		c2.7-0.5,7.4-1.4,9.6,0.3c1.7,1.3,1.4,3.5-0.9,3.8c-3.3,0.4-6.7-1-9.6-2.6c-2.5,0.7-5,1.9-7.3,3.2c-2.6,1.5-5.2,3.1-7.7,4.8
		c0.9,0.6,1.7,1.2,2.8,1.6c0.2-0.1,0.4-0.2,0.6-0.3c3.8-2,9-5,13.3-5.6c5.2-0.8,11.7-0.2,16.2,2.8c3,2,4.2,5.6,2.3,8.8l0,0l0,0
		c-1.5,2.1-4.1,3-6.6,3.2c-1.1,4.2-6.7,5.4-10.5,5.1c-5.1-0.4-10-2.9-14.4-5.5c-1.6-1-3.3-2-4.9-3c-4.4,2.8-9,5.3-14,7
		c-5,1.8-10.6,1.7-15.1-1.5c-1.1-0.7-1.9-2-2.3-3.2c-3.3-0.9-7.4-2.8-7.1-6.8c0-2.6,2.9-5.1,5.1-6c0.3-0.1,0.6-0.2,0.9-0.3
		c4.7-1.5,9.1-1.3,13.8-0.1c4.5,1.1,8.3,3,12.3,5.2c1-0.6,2-1.2,3.1-1.8c-4.6-3-9.3-5.8-14.4-7.8c-3.2,1.4-7,2.7-10.5,1.7l0,0l0,0
		c-2.1-0.9-1.1-3.4,0.6-4.1c1.5-0.6,2.9-0.6,4.5-0.4c1.7,0.2,3.3,0.5,4.9,1C76.1,90.1,84.3,75.6,87,68.7L87,68.7z M106.8,95.5
		c1.9,1.1,5.2,1.5,7.1,1.1c0,0,0,0,0,0c-0.1-0.3-1-0.7-1.2-0.8C111,95.3,108.6,95.2,106.8,95.5L106.8,95.5z M60.8,95.6
		c1.9,0.6,5.2,0.5,7.2-0.4c-1.9-0.4-4.2-0.6-5.9-0.3C61.9,95,61,95.3,60.8,95.6C60.8,95.6,60.8,95.6,60.8,95.6L60.8,95.6z M87,108.5
		l3.2-1.9l-2.6-1.6l-3,1.9L87,108.5L87,108.5z M95,107.1c6.7,4.1,13.2,6.3,21.2,6c0.3-1.1,0.3-3-0.2-4c-0.9-1.3-2.7-2-4.2-2.2
		c-1.9-0.2-3.9,0.2-5.5,1.2c-0.6,0.4-1.5,0.2-1.4-0.6c0-0.2,0.1-0.4,0.2-0.5c0.7-0.9,2.3-1.3,3.3-1.5c1.8-0.3,3.8-0.1,5.6,0.4
		c3,0.9,4.4,3.9,4.4,6.9c2.3-0.5,5.2-2.2,5.4-4.8c0-0.3,0-0.6-0.1-1c-0.7-3.4-6.2-5-9.1-5.5c-1.3-0.2-2.6-0.3-3.9-0.3
		C104.3,101.7,100.1,103.9,95,107.1L95,107.1z M59.3,108.7c-0.7,0.9-1,2.2-1.1,3.4c8,1.4,15.6-1.4,22.2-5.7
		c-5.6-3.4-11.4-5.1-18.1-5.3c-2.3,0-4.7,0.4-6.8,1.5c-1.6,0.9-3,2.2-3.5,4c-0.8,2.9,2.2,4.5,4.6,5.3c0-2.7,1.4-4.9,4.1-5.7
		c0.7-0.2,1.4-0.3,2.1-0.4c1.6-0.1,4.7,0.3,5.9,1.6c0.2,0.2,0.3,0.4,0.2,0.6l0,0c-0.2,0.6-0.8,0.6-1.3,0.5l0,0l0,0
		C65.2,107.5,61.3,106.4,59.3,108.7L59.3,108.7z M61,116.2c4.1,1.8,8.2,1.4,12.2-0.4c4.2-1.9,8.1-4.2,12.1-6.3
		c-0.8-0.5-1.5-1-2.3-1.5c-3.6,2.2-6.9,3.9-11,5.1c-4.7,1.4-8.6,1.6-13.3,0.9C59.3,114.9,60,115.6,61,116.2L61,116.2z M115.4,115
		c-1.8-0.1-3.6-0.2-5.4-0.4c-2.2-0.3-4.3-0.8-6.4-1.5c-2.1-0.7-4.1-1.5-6.1-2.5c-1.5-0.7-3-1.5-4.4-2.4c-1.1,0.7-2.2,1.4-3.3,2.1
		c4,2.2,7.9,4.5,12.1,6.3c3,1.3,7.2,1.6,10.3,0.5C113.2,116.8,114.7,115.9,115.4,115L115.4,115z M72.4,94.8c5.2,1.9,10,4.5,14.5,7.7
		c4.7-3.1,10.1-6.3,15.6-7.9C96,89.7,90.6,80,88,72.3C84.3,80.3,79.6,89.6,72.4,94.8L72.4,94.8z M87.9,66c0.6-1.7,1.1-3.4,1-5.3
		c0-0.6-0.5-1.5-1.2-1.3c-0.2,0-0.3,0.2-0.3,0.3C86.9,60.9,87.4,64.1,87.9,66L87.9,66z"/>
	<path class="st3" d="M59,108.5c-0.8,1.2-1.2,2.7-1.1,3.9c7.7,1.5,15.5-0.9,23.3-6.1c-5.4-3.4-11.4-5.5-18.8-5.6
		c-5.4-0.1-9.6,2.3-10.6,5.8c-0.9,3,1.9,4.9,5.3,5.9c-0.2-3.1,1.4-5.2,3.8-5.9c2.9-0.9,6.6,0.1,7.6,1.2c0.1,0.1,0.1,0.2,0.1,0.3
		c-0.1,0.3-0.4,0.4-0.8,0.3C64.5,106.7,60.9,106.2,59,108.5L59,108.5z M116.2,108.9c0.7,1.2,0.6,3.5,0.2,4.5
		c-8.2,0.3-15-1.9-22.2-6.4c5.4-3.4,9.7-5.8,16.3-6c5.6-0.1,12.5,2.2,13.3,6.1c0.6,2.9-2.5,5.7-6.1,6.3c0.2-3.3-1.3-6.2-4.1-7
		c-4-1.2-7.6-0.2-8.5,0.9c-0.1,0.1-0.1,0.2-0.1,0.3c-0.1,0.4,0.3,0.6,0.8,0.3C109.4,105.7,114.4,106.4,116.2,108.9L116.2,108.9z
		 M87,108.9l-3.1-1.9l3.7-2.4l3.4,2.1L87,108.9L87,108.9z M60.7,96c2.4,0.8,6.6,0.4,8.4-0.8c-1.9-0.6-4.8-1-7-0.5
		C60.9,94.9,60,95.5,60.7,96L60.7,96z M114,96.9c-2.5,0.6-6.6-0.2-8.3-1.7c1.9-0.4,4.9-0.5,7,0.2C113.9,95.8,114.7,96.6,114,96.9
		L114,96.9z M65,93.5c1.9,0.2,3.4,0.5,5,1c6.3-4,14.8-19,17.4-25.9c-1.3-3.3-2-6.6-0.9-9.6c0.5-1.5,1.7-1.9,2.8-0.8
		c2,2.1,0.7,7.6-0.6,11.6c2.6,8.9,8.9,19.3,16.4,25c3.1-0.6,7.4-1.4,9.5,0.2c1.4,1.1,1.2,2.9-0.7,3.1c-3,0.3-6.2-0.8-9.5-2.6
		c-4.7,1.3-10.1,4.7-15.7,8.4c1,0.7,1.9,1.4,3.4,2.1c4.9-2.6,9.9-5.5,14-6c6.2-1,12.3,0.3,15.9,2.8c3,2,3.9,5.4,2.1,8.3
		c-1,1.4-3.1,2.8-6.6,3.1c-0.8,4.1-6.1,5.4-10.1,5.1c-4.6-0.4-9.1-2.4-14.3-5.4c-1.7-1.1-3.4-2.1-5.1-3.2c-4.5,2.8-9.1,5.4-14.1,7.1
		c-4.8,1.7-10.4,1.7-14.7-1.5c-1.2-0.8-1.9-2-2.2-3.2c-4-1.1-7.3-3-7.1-6.5c0-2.2,2.7-5.1,5.8-6c4.9-1.6,9.3-1.1,13.6-0.1
		c4.9,1.2,8.8,3.2,12.4,5.3c1.3-0.8,2.5-1.5,3.8-2.3c-4.8-3.1-9.6-6.1-15.2-8.2c-4.1,1.9-7.4,2.6-10.4,1.7c-1.8-0.7-0.8-2.8,0.6-3.3
		C61.7,93.4,62.9,93.2,65,93.5L65,93.5z M60.8,116.6c-1.4-0.9-2.3-2-2.8-3.1c4.9,0.9,8.8,0.8,13.9-0.7c4.6-1.4,8.1-3.4,11.1-5.2
		c1,0.7,2,1.3,3,2c-4.2,2.2-8.3,4.7-12.7,6.7C69.1,118.1,64.9,118.4,60.8,116.6L60.8,116.6z M112.4,117.5c1.8-0.7,3.3-1.9,3.7-2.8
		c-5.1-0.3-7.2-0.4-12.3-1.9c-4.9-1.6-7.7-3.3-10.7-4.9c-1,0.7-3,1.9-4,2.6c3.9,2.2,8.3,4.7,12.7,6.7
		C104.4,118.2,108.8,118.8,112.4,117.5L112.4,117.5z M86.8,103c-4.7-3.4-9.8-6.1-15.3-8.1c7.8-5.2,12.8-15.4,16.5-23.6
		c2.5,7.9,8.3,18.5,15.3,23.6C98,96.2,92.3,99.3,86.8,103L86.8,103z M87.1,59.6c-0.7,1.4,0.1,5.9,0.9,7.6c0.6-1.9,1.5-4.1,1.4-6.5
		C89.2,59.1,87.6,58.5,87.1,59.6L87.1,59.6z"/>
</g>
</svg>
